# xmcd
#
# Track frame offsets:
#	150
#	19841
#	35343
#	53663
#	73864
#	93087
#	115331
#	130851
#	149503
#	178861
#	194135
#	212657
#	229055
#
# Disc length: 3395
#
# Revision: 1
# Processed by: cddbd v1.5.1PL0 Copyright (c) Steve Scherf et al.
# Submitted via: dBpowerAMP V4.0
# Normalized: r0:TDELIM( - )
#
DISCID=c00d410d
DTITLE=The Alligators - Ain't Nothing But Love
DYEAR=2002
DGENRE=Blues
TTITLE0=I Got My Porch Light Open - Pete Kiss
TTITLE1=It Ain't Nothing But Love - John Pickens Jenkins
TTITLE2=In The Basement - Billy Davis
TTITLE3=Eyesight To The Blind - Sonny Boy Williamson
TTITLE4=Don't Stomp On Me - Krammer/Schwartz
TTITLE5=Cry, Cry, Cry - Steve Schwartz
TTITLE6=Snatch It Back And Hold It - Buddy Guy
TTITLE7=Boogie Baby - Dave Krammer
TTITLE8=Lake Michigan Blues - James Rachell
TTITLE9=Hard Rockin' Mama - Steve Schwartz
TTITLE10=You're Lazy - Mark Seyler
TTITLE11=Like A Dog - Greg Blankenship
TTITLE12=Out The Door - Krammer/Schwartz
EXTD=www.thealligators.com
EXTT0=
EXTT1=
EXTT2=
EXTT3=
EXTT4=
EXTT5=
EXTT6=
EXTT7=
EXTT8=
EXTT9=
EXTT10=
EXTT11=
EXTT12=
PLAYORDER=
